<?xml version="1.0" standalone="no"?>
<!DOCTYPE svg PUBLIC "-//W3C//DTD SVG 20010904//EN"
 "http://www.w3.org/TR/2001/REC-SVG-20010904/DTD/svg10.dtd">
<svg version="1.0" xmlns="http://www.w3.org/2000/svg"
 width="1024.000000pt" height="1024.000000pt" viewBox="0 0 1024.000000 1024.000000"
 preserveAspectRatio="xMidYMid meet">
<metadata>
Created by potrace 1.11, written by Peter Selinger 2001-2013
</metadata>
<g transform="translate(0.000000,1024.000000) scale(0.100000,-0.100000)"
fill="#000000" stroke="none">
<path d="M858 10225 c-375 -63 -675 -320 -804 -687 -57 -162 -54 114 -54
-4423 0 -3649 2 -4181 15 -4255 39 -224 138 -411 297 -566 141 -137 313 -231
501 -271 78 -17 297 -18 4307 -18 4010 0 4229 1 4307 18 194 42 379 144 519
289 153 157 244 337 279 553 22 136 22 8374 0 8510 -37 227 -141 423 -311 586
-146 140 -330 230 -539 264 -78 13 -643 15 -4265 14 -3363 -1 -4190 -4 -4252
-14z m3823 -1570 c316 -30 647 -97 859 -175 840 -308 1402 -851 1723 -1665
117 -298 186 -587 234 -980 27 -221 26 -1227 0 -1450 -74 -618 -245 -1117
-526 -1542 -433 -655 -1119 -1087 -1946 -1227 -291 -49 -306 -50 -1327 -53
l-968 -4 0 3555 0 3556 893 0 c724 0 924 -3 1058 -15z"/>
<path d="M3650 5115 l0 -2817 498 5 c300 3 529 9 577 16 259 38 461 95 650
185 724 344 1128 1005 1227 2006 18 186 18 1024 0 1210 -86 868 -415 1496
-977 1862 -197 129 -443 230 -690 283 -218 48 -328 56 -822 62 l-463 5 0
-2817z"/>
</g>
</svg>
